<?xml version="1.0" encoding="iso-8859-1"?>
<!-- Generator: Adobe Illustrator 16.0.0, SVG Export Plug-In . SVG Version: 6.00 Build 0)  -->
<!DOCTYPE svg PUBLIC "-//W3C//DTD SVG 1.1//EN" "http://www.w3.org/Graphics/SVG/1.1/DTD/svg11.dtd">
<svg version="1.1" id="Capa_1" xmlns="http://www.w3.org/2000/svg" xmlns:xlink="http://www.w3.org/1999/xlink" x="0px" y="0px"
	 width="82.173px" height="82.173px" viewBox="0 0 82.173 82.173" style="enable-background:new 0 0 82.173 82.173;"
	 xml:space="preserve">
<g>
	<g>
		<path d="M56.865,21.849c-13.978,0-25.307,11.331-25.307,25.307s11.33,25.309,25.307,25.309c13.977,0,25.308-11.332,25.308-25.309
			S70.842,21.849,56.865,21.849z M61.141,25.674c0.078,0.014,3.946,0.742,8.029,3.37l-2.16,2.97
			c-2.177-1.583-4.373-2.473-6.474-2.897L61.141,25.674z M53.426,25.389l0.501,3.339c-3.06,0.462-5.489,1.595-7.414,3.031
			l-2.011-2.826C44.57,28.886,48.205,26.363,53.426,25.389z M38.518,58.762c-0.043-0.061-2.118-3.054-3.231-7.499l3.596-0.541
			c0.37,2.452,1.174,4.495,2.217,6.204L38.518,58.762z M38.693,42.767l-2.862-0.503c0.013-0.075,0.718-3.829,3.25-7.843l2.518,1.833
			C40.006,38.445,39.116,40.653,38.693,42.767z M52.416,68.82c-0.076-0.015-3.848-0.721-7.872-3.269l2.185-3.004
			c2.114,1.538,4.243,2.417,6.289,2.856L52.416,68.82z M61.441,68.256l-0.463-3.087c3.594-0.923,6.008-2.598,6.059-2.633
			l2.094,2.945C67.023,66.787,64.492,67.796,61.441,68.256z M56.865,60.667c-7.461,0-13.51-6.05-13.51-13.511
			c0-7.462,6.047-13.512,13.51-13.512c7.462,0,13.511,6.05,13.511,13.512C70.377,54.617,64.327,60.667,56.865,60.667z
			 M74.824,34.306c1.697,2.325,3.033,5.245,3.584,8.903l-3.346,0.502c-0.781-4.367-2.902-7.428-2.94-7.481L74.824,34.306z
			 M72.552,56.84c2.108-3.321,2.695-6.444,2.705-6.507l3.472,0.611c-0.526,2.539-1.611,5.191-3.525,7.824L72.552,56.84z"/>
		<circle cx="56.865" cy="47.155" r="9.741"/>
		<path d="M29.883,56.119l-0.464-3.088c0.071-0.019,0.139-0.037,0.209-0.057c-0.367-1.604-0.594-3.256-0.663-4.951
			c-1.164,0.326-2.39,0.506-3.658,0.506c-7.461,0-13.51-6.051-13.51-13.511c0-7.462,6.048-13.512,13.51-13.512
			c4.837,0,9.078,2.543,11.465,6.363c1.236-1.252,2.591-2.384,4.049-3.379c-0.152-0.246-0.249-0.389-0.258-0.398l2.705-1.924
			c0.146,0.201,0.285,0.412,0.426,0.621c0.963-0.497,1.959-0.942,2.983-1.321c-4.489-7.066-12.379-11.759-21.37-11.759
			C11.33,9.708,0,21.041,0,35.018c0,13.976,11.33,25.308,25.307,25.308c2.319,0,4.564-0.319,6.699-0.904
			c-0.573-1.096-1.075-2.236-1.496-3.414C30.302,56.044,30.096,56.085,29.883,56.119z M29.583,13.537
			c0.077,0.015,3.946,0.741,8.029,3.37l-2.16,2.97c-2.177-1.583-4.373-2.473-6.474-2.898L29.583,13.537z M21.868,13.251l0.501,3.339
			c-3.06,0.462-5.489,1.595-7.414,3.031l-2.011-2.826C13.012,16.749,16.647,14.227,21.868,13.251z M6.96,46.625
			c-0.043-0.061-2.118-3.055-3.231-7.499l3.595-0.541c0.37,2.452,1.175,4.495,2.217,6.204L6.96,46.625z M7.135,30.627l-2.862-0.501
			c0.014-0.075,0.718-3.829,3.25-7.843l2.518,1.833C8.448,26.309,7.558,28.517,7.135,30.627z M20.858,56.683
			c-0.076-0.015-3.847-0.722-7.872-3.27l2.185-3.003c2.113,1.538,4.243,2.418,6.289,2.856L20.858,56.683z"/>
		<path d="M15.568,35.019c0,5.379,4.36,9.74,9.74,9.74c1.344,0,2.625-0.272,3.79-0.765c0.521-4.839,2.321-9.3,5.054-13.04
			c-1.541-3.348-4.917-5.677-8.843-5.677C19.928,25.276,15.568,29.638,15.568,35.019z"/>
	</g>
</g>
<g>
</g>
<g>
</g>
<g>
</g>
<g>
</g>
<g>
</g>
<g>
</g>
<g>
</g>
<g>
</g>
<g>
</g>
<g>
</g>
<g>
</g>
<g>
</g>
<g>
</g>
<g>
</g>
<g>
</g>
</svg>
